<?xml version="1.0" encoding="utf-8"?>
<svg viewBox="0 0 600 500" xmlns="http://www.w3.org/2000/svg">
  <path d="M 582.826 82.733 L 582.826 304.697 L 416.036 304.697 L 416.036 82.733 L 582.826 82.733 Z" style="fill: rgb(221, 221, 221);" ref="84cd718c-05df-4865-8032-6bda3cb1c02c"/>
  <path d="M 582.826 418.707 L 470.832 418.707 L 470.832 314.697 L 582.826 314.697 L 582.826 418.707 Z" style="fill: rgb(221, 221, 221);" ref="2f62ed7f-e3b6-4f83-ac1c-dabd4f632e67"/>
  <path d="M 416.036 418.707 L 416.036 314.697 L 460.832 314.697 L 460.832 418.707 L 416.036 418.707 Z" style="fill: rgb(221, 221, 221);" ref="2ccd42cf-c249-4532-96e1-a93d27e332b0"/>
  <path d="M 17.175 485.688 L 17.175 376.564 L 140.539 376.564 L 183.892 427.281 L 183.892 485.688 L 17.175 485.688 Z" style="fill: rgb(221, 221, 221);" ref="caa9153c-c87b-4ade-910e-af98fd951d12"/>
  <path d="M 205.181 282.895 L 205.181 319.328 L 96.294 319.328 L 96.294 282.895 L 205.181 282.895 Z" style="fill: rgb(221, 221, 221);" ref="28453360-a188-48e0-8200-58a17d4a9ed6"/>
  <path d="M 311.388 208.025 L 311.388 258.087 L 250.069 319.328 L 215.181 319.328 L 215.181 208.025 L 311.388 208.025 Z" style="fill: rgb(221, 221, 221);" ref="ef750f41-2821-49b7-b732-bb10084b5f8c"/>
  <path d="M 317.701 418.707 L 317.701 382.817 L 354.636 345.928 L 391.315 345.928 L 391.315 418.707 L 317.701 418.707 Z" style="fill: rgb(221, 221, 221);" ref="b5f797d5-7931-4b95-90ab-e74f3acee0a7"/>
  <path d="M 86.294 282.895 L 86.294 329.328 L 119.294 329.328 L 119.294 366.564 L 17.175 366.564 L 17.175 282.895 L 86.294 282.895 Z" style="fill: rgb(255, 255, 255); stroke: rgb(0, 0, 0);" ref="a165aada-1317-42d0-8d70-fb02a74c4181"/>
  <path d="M 189.719 418.707 L 145.146 366.564 L 129.294 366.564 L 129.294 329.328 L 254.207 329.328 L 321.388 262.232 L 321.388 208.025 L 391.315 208.025 L 391.315 335.928 L 350.498 335.928 L 307.701 378.671 L 307.701 418.707 L 189.719 418.707 Z" style="fill: rgb(221, 221, 221);" ref="cc424f23-fba2-4728-8cfa-2bd00c18f704"/>
  <path d="M 17.175 14.313 L 391.315 14.313 L 391.315 198.025 L 205.181 198.025 L 205.181 272.895 L 17.175 272.895 L 17.175 14.313 Z" style="fill: rgb(221, 221, 221);" ref="6e9892ed-cfc7-4b46-9422-e9cef428bc35"/>
</svg>