<?xml version="1.0" encoding="utf-8"?>
<svg viewBox="-71.50599670410156 -101.19100189208984 600 500" xmlns="http://www.w3.org/2000/svg">
  <path d="M 509.959 -18.458 L 509.959 236.31 L 343.17 236.31 L 343.17 -18.458 L 509.959 -18.458 Z" style="fill: rgb(221, 221, 221);" ref="e35d0b31-0253-4dda-888c-43bfa536cb59"/>
  <path d="M 509.959 317.516 L 343.17 317.516 L 343.17 246.31 L 509.959 246.31 L 509.959 317.516 Z" style="fill: rgb(221, 221, 221);" ref="40f45d49-d92b-4951-8a16-92543aacf6c0"/>
  <path d="M -52.97 384.497 L -52.97 275.373 L 126.271 275.373 L 126.271 320.358 L 96.364 320.358 L 96.364 384.497 L -52.97 384.497 Z" style="fill: rgb(221, 221, 221);" ref="47269bb1-9877-4a99-a888-80f27bad23d4"/>
  <path d="M 80.428 181.704 L 321.17 181.704 L 321.17 236.31 L 126.271 236.31 L 126.271 265.373 L 80.428 265.373 L 80.428 181.704 Z" style="fill: rgb(221, 221, 221);" ref="a84c4d61-8f6d-47ec-82a5-9679387cc72f"/>
  <path d="M 182.644 78.746 L 182.644 171.704 L 125.365 171.704 L 125.365 78.746 L 182.644 78.746 Z" style="fill: rgb(221, 221, 221);" ref="3a068146-cde3-493f-a491-a80890ea9745"/>
  <path d="M -52.97 171.704 L -52.97 78.746 L 115.365 78.746 L 115.365 171.704 L -52.97 171.704 Z" style="fill: rgb(221, 221, 221);" ref="5d239c9a-b3a2-41a3-bd13-e738437ba2a3"/>
  <path d="M 255.64 171.704 L 255.64 -8.458 L 321.17 -8.458 L 321.17 171.704 L 255.64 171.704 Z" style="fill: rgb(221, 221, 221);" ref="7ed26f9f-167b-4c0e-9d39-074d9c7a97a9"/>
  <path d="M 70.428 181.704 L 70.428 265.373 L -52.97 265.373 L -52.97 181.704 L 70.428 181.704 Z" style="stroke: rgb(0, 0, 0); fill: rgb(255, 255, 255);" ref="7c50c687-46fd-43b9-b369-f8bd335865b9"/>
  <path d="M -52.971 -86.879 L 321.169 -86.879 L 321.169 -18.459 L 245.64 -18.459 L 245.64 171.703 L 192.644 171.703 L 192.644 68.745 L -52.971 68.745 L -52.971 -86.879 Z" style="fill: rgb(221, 221, 221);" ref="9fed9e3f-8950-4c5e-abaa-335f607fd5a6"/>
  <path d="M 321.17 384.497 L 106.364 384.497 L 106.364 330.358 L 136.271 330.358 L 136.271 246.31 L 321.17 246.31 L 321.17 384.497 Z" style="fill: rgb(221, 221, 221);" ref="06b0562e-b888-4181-babe-9efef4ca2e74"/>
</svg>