<?xml version="1.0" encoding="UTF-8" standalone="no"?>
<?xml-stylesheet type="text/css" href="svg.css"?><!-- Created with Inkscape (http://www.inkscape.org/) -->

<svg
   xmlns:dc="http://purl.org/dc/elements/1.1/"
   xmlns:cc="http://creativecommons.org/ns#"
   xmlns:rdf="http://www.w3.org/1999/02/22-rdf-syntax-ns#"
   xmlns:svg="http://www.w3.org/2000/svg"
   xmlns="http://www.w3.org/2000/svg"
   xmlns:xlink="http://www.w3.org/1999/xlink"
   xmlns:sodipodi="http://sodipodi.sourceforge.net/DTD/sodipodi-0.dtd"
   xmlns:inkscape="http://www.inkscape.org/namespaces/inkscape"
   width="9420.6318"
   height="496.55334"
   viewBox="0 0 9420.6317 496.55333"
   id="svg4173"
   version="1.1"
   inkscape:version="0.91 r13725"
   sodipodi:docname="equipment.svg">
  <defs
     id="defs4175">
    <filter
       id="indigo-glow"
       x="-15472.602"
       y="-998.43134"
       width="30945.203"
       height="1996.8627"
       filterUnits="userSpaceOnUse"
       style="color-interpolation-filters:sRGB">
      <feComponentTransfer
         in="SourceAlpha"
         id="feComponentTransfer7">
        <feFuncR
           type="discrete"
           tableValues="0.6"
           id="feFuncR9" />
        <feFuncG
           type="discrete"
           tableValues="1"
           id="feFuncG11" />
        <feFuncB
           type="discrete"
           tableValues="1"
           id="feFuncB13" />
      </feComponentTransfer>
      <feGaussianBlur
         stdDeviation="64"
         id="feGaussianBlur15" />
      <feOffset
         dx="0"
         dy="0"
         result="s1"
         id="feOffset17" />
      <feGaussianBlur
         stdDeviation="16"
         id="feGaussianBlur19" />
      <feOffset
         dx="0"
         dy="0"
         result="s2"
         id="feOffset21" />
      <feGaussianBlur
         stdDeviation="4"
         id="feGaussianBlur23" />
      <feOffset
         dx="0"
         dy="0"
         result="s3"
         id="feOffset25" />
      <feGaussianBlur
         stdDeviation="1"
         id="feGaussianBlur27" />
      <feOffset
         dx="0"
         dy="0"
         result="s4"
         id="feOffset29" />
      <feMerge
         id="feMerge31">
        <feMergeNode
           in="s4"
           id="feMergeNode33" />
        <feMergeNode
           in="s3"
           id="feMergeNode35" />
        <feMergeNode
           in="s2"
           id="feMergeNode37" />
        <feMergeNode
           in="s1"
           id="feMergeNode39" />
        <feMergeNode
           in="SourceGraphic"
           id="feMergeNode41" />
      </feMerge>
    </filter>
  </defs>
  <sodipodi:namedview
     id="base"
     pagecolor="#ffffff"
     bordercolor="#666666"
     borderopacity="1.0"
     inkscape:pageopacity="0.0"
     inkscape:pageshadow="2"
     inkscape:zoom="0.315"
     inkscape:cx="9018.1947"
     inkscape:cy="-142.87277"
     inkscape:document-units="px"
     inkscape:current-layer="svg4173"
     showgrid="false"
     showguides="true"
     inkscape:guide-bbox="true"
     fit-margin-top="55"
     fit-margin-left="500"
     fit-margin-right="500"
     fit-margin-bottom="0"
     units="px"
     inkscape:window-width="1600"
     inkscape:window-height="877"
     inkscape:window-x="-8"
     inkscape:window-y="-8"
     inkscape:window-maximized="1"
     inkscape:snap-page="true"
     inkscape:snap-bbox="true"
     inkscape:bbox-paths="true"
     inkscape:bbox-nodes="true"
     inkscape:snap-bbox-edge-midpoints="true"
     inkscape:snap-bbox-midpoints="true"
     inkscape:object-paths="true"
     inkscape:snap-intersection-paths="true"
     inkscape:object-nodes="true"
     inkscape:snap-smooth-nodes="true"
     inkscape:snap-midpoints="true"
     inkscape:snap-object-midpoints="true"
     inkscape:snap-center="true"
     inkscape:snap-global="false">
    <sodipodi:guide
       position="2953.9646,71.004548"
       orientation="0,1"
       id="guide4258" />
    <sodipodi:guide
       position="2465.1286,174.52074"
       orientation="0,1"
       id="guide4349" />
    <sodipodi:guide
       position="2820.1699,183.54397"
       orientation="0,1"
       id="guide4351" />
    <sodipodi:guide
       position="2817.9307,202.57752"
       orientation="0,1"
       id="guide16853" />
    <sodipodi:guide
       position="5939.8155,237.89735"
       orientation="0,1"
       id="guide27089" />
    <sodipodi:guide
       position="5268.9037,32.708733"
       orientation="0,1"
       id="guide72541" />
  </sodipodi:namedview>
  <metadata
     id="metadata4178">
    <rdf:RDF>
      <cc:Work
         rdf:about="">
        <dc:format>image/svg+xml</dc:format>
        <dc:type
           rdf:resource="http://purl.org/dc/dcmitype/StillImage" />
        <dc:title></dc:title>
      </cc:Work>
    </rdf:RDF>
  </metadata>
  <path
     style="color:#000000;font-style:normal;font-variant:normal;font-weight:normal;font-stretch:normal;font-size:medium;line-height:normal;font-family:sans-serif;text-indent:0;text-align:start;text-decoration:none;text-decoration-line:none;text-decoration-style:solid;text-decoration-color:#000000;letter-spacing:normal;word-spacing:normal;text-transform:none;direction:ltr;block-progression:tb;writing-mode:lr-tb;baseline-shift:baseline;text-anchor:start;white-space:normal;clip-rule:nonzero;display:inline;overflow:visible;visibility:visible;opacity:0.3;isolation:auto;mix-blend-mode:normal;color-interpolation:sRGB;color-interpolation-filters:linearRGB;solid-color:#000000;solid-opacity:1;fill:#000000;fill-opacity:1;fill-rule:evenodd;stroke:none;stroke-width:5;stroke-linecap:round;stroke-linejoin:round;stroke-miterlimit:4;stroke-dasharray:none;stroke-dashoffset:0;stroke-opacity:1;color-rendering:auto;image-rendering:auto;shape-rendering:auto;text-rendering:auto;enable-background:accumulate"
     d="m 5263.5039,244.34976 c -1.3807,1.4e-4 -2.4999,1.11935 -2.5,2.5 l 0,213.23828 c -0.048,3.38081 5.0478,3.38081 5,0 l 0,-210.73828 95.875,0 c 3.3808,0.0478 3.3808,-5.04781 0,-5 z"
     id="path22913"
     inkscape:connector-curvature="0"
     sodipodi:nodetypes="cccccccc" />
  <path
     style="color:#000000;font-style:normal;font-variant:normal;font-weight:normal;font-stretch:normal;font-size:medium;line-height:normal;font-family:sans-serif;text-indent:0;text-align:start;text-decoration:none;text-decoration-line:none;text-decoration-style:solid;text-decoration-color:#000000;letter-spacing:normal;word-spacing:normal;text-transform:none;direction:ltr;block-progression:tb;writing-mode:lr-tb;baseline-shift:baseline;text-anchor:start;white-space:normal;clip-rule:nonzero;display:inline;overflow:visible;visibility:visible;opacity:0.3;isolation:auto;mix-blend-mode:normal;color-interpolation:sRGB;color-interpolation-filters:linearRGB;solid-color:#000000;solid-opacity:1;fill:#000000;fill-opacity:1;fill-rule:evenodd;stroke:none;stroke-width:5;stroke-linecap:round;stroke-linejoin:round;stroke-miterlimit:4;stroke-dasharray:none;stroke-dashoffset:0;stroke-opacity:1;color-rendering:auto;image-rendering:auto;shape-rendering:auto;text-rendering:auto;enable-background:accumulate"
     d="m 2182.6543,55.000145 c -0.1271,0.0027 -0.2537,0.01513 -0.3789,0.03711 l -961.8887,0 c -1.3807,1.38e-4 -2.4999,1.119345 -2.5,2.5 l 0,167.119145 c -0.048,3.38081 5.0478,3.38081 5,0 l 0,-164.619145 957.3067,0 0,234.232425 -78.3301,0 c -3.3808,-0.0478 -3.3808,5.04781 0,5 l 80.8301,0 c 1.3807,-1.4e-4 2.4999,-1.11935 2.5,-2.5 l 0,-236.732425 402.0273,0 0,237.230475 c 1e-4,1.38065 1.1193,2.49986 2.5,2.5 l 100.4121,0 c 3.3808,0.0478 3.3808,-5.04781 0,-5 l -97.9121,0 0,-234.730475 936.8613,0 0,227.189455 c 1e-4,1.38065 1.1193,2.49986 2.5,2.5 l 99.7285,0 c 3.3808,0.0478 3.3808,-5.04781 0,-5 l -97.2285,0 0,-224.689455 809.1621,0 0,201.734375 c 1e-4,1.38065 1.1193,2.49986 2.5,2.5 l 99.4043,0 c 3.3808,0.0478 3.3808,-5.04781 0,-5 l -96.9043,0 0,-199.234375 1513.4649,0 0,200.005865 -96.9004,0 c -3.3808,-0.0478 -3.3808,5.04781 0,5 l 99.4004,0 c 1.3807,-1.4e-4 2.4999,-1.11935 2.5,-2.5 l 0,-202.505865 735,0 0,140.005865 -96.9004,0 c -3.3808,-0.0478 -3.3808,5.04781 0,5 l 99.4004,0 c 1.3807,-1.4e-4 2.4999,-1.11935 2.5,-2.5 l 0,-142.505865 547,0 0,182.505865 c -0.048,3.38081 5.0478,3.38081 5,0 l 0,-182.505865 833,0 0,140.005865 -96.9004,0 c -3.3808,-0.0478 -3.3808,5.04781 0,5 l 99.4004,0 c 1.3807,-1.4e-4 2.4999,-1.11935 2.5,-2.5 l 0,-142.505865 706.6094,0 0,180.746095 c -0.048,3.38081 5.0478,3.38081 5,0 l 0,-183.246095 c -10e-5,-1.380655 -1.1193,-2.499862 -2.5,-2.5 l -711.1914,0 c -0.1503,-0.02623 -0.3026,-0.03865 -0.4551,-0.03711 -0.1271,0.0027 -0.2537,0.01513 -0.3789,0.03711 l -837.166,0 c -0.1503,-0.02623 -0.3026,-0.03865 -0.4551,-0.03711 -0.1271,0.0027 -0.2537,0.01513 -0.3789,0.03711 l -551.166,0 c -0.1503,-0.02623 -0.3026,-0.03865 -0.4551,-0.03711 -0.1271,0.0027 -0.2537,0.01513 -0.3789,0.03711 l -739.166,0 c -0.1503,-0.02623 -0.3026,-0.03865 -0.4551,-0.03711 -0.1271,0.0027 -0.2537,0.01513 -0.3789,0.03711 l -1517.6309,0 c -0.1503,-0.02623 -0.3026,-0.03865 -0.4551,-0.03711 -0.1271,0.0027 -0.2537,0.01513 -0.3789,0.03711 l -813.3281,0 c -0.1503,-0.02623 -0.3026,-0.03865 -0.4551,-0.03711 -0.1271,0.0027 -0.2537,0.01513 -0.3789,0.03711 l -941.0273,0 c -0.1503,-0.02623 -0.3026,-0.03865 -0.4551,-0.03711 -0.1271,0.0027 -0.2537,0.01513 -0.3789,0.03711 l -406.1934,0 c -0.1509,-0.02634 -0.3039,-0.03876 -0.457,-0.03711 z"
     id="path24897"
     inkscape:connector-curvature="0"
     sodipodi:nodetypes="cccccccccccccccccccccccccccccccccccccccccccccccccccccccccccccccccccccccccccccccccccccccc" />
  <path
     style="color:#000000;font-style:normal;font-variant:normal;font-weight:normal;font-stretch:normal;font-size:medium;line-height:normal;font-family:sans-serif;text-indent:0;text-align:start;text-decoration:none;text-decoration-line:none;text-decoration-style:solid;text-decoration-color:#000000;letter-spacing:normal;word-spacing:normal;text-transform:none;direction:ltr;block-progression:tb;writing-mode:lr-tb;baseline-shift:baseline;text-anchor:start;white-space:normal;clip-rule:nonzero;display:inline;overflow:visible;visibility:visible;opacity:0.3;isolation:auto;mix-blend-mode:normal;color-interpolation:sRGB;color-interpolation-filters:linearRGB;solid-color:#000000;solid-opacity:1;fill:#000000;fill-opacity:1;fill-rule:evenodd;stroke:none;stroke-width:5;stroke-linecap:round;stroke-linejoin:round;stroke-miterlimit:4;stroke-dasharray:none;stroke-dashoffset:0;stroke-opacity:1;color-rendering:auto;image-rendering:auto;shape-rendering:auto;text-rendering:auto;enable-background:accumulate"
     d="m 3033.7891,294.76773 c -3.3808,-0.0478 -3.3808,5.04781 0,5 l 97.9121,0 0,125.27539 c -0.048,3.38081 5.0478,3.38081 5,0 l 0,-127.77539 c -10e-5,-1.38065 -1.1193,-2.49986 -2.5,-2.5 z"
     id="path93129"
     inkscape:connector-curvature="0"
     sodipodi:nodetypes="cccccccc" />
  <path
     style="color:#000000;font-style:normal;font-variant:normal;font-weight:normal;font-stretch:normal;font-size:medium;line-height:normal;font-family:sans-serif;text-indent:0;text-align:start;text-decoration:none;text-decoration-line:none;text-decoration-style:solid;text-decoration-color:#000000;letter-spacing:normal;word-spacing:normal;text-transform:none;direction:ltr;block-progression:tb;writing-mode:lr-tb;baseline-shift:baseline;text-anchor:start;white-space:normal;clip-rule:nonzero;display:inline;overflow:visible;visibility:visible;opacity:0.3;isolation:auto;mix-blend-mode:normal;color-interpolation:sRGB;color-interpolation-filters:linearRGB;solid-color:#000000;solid-opacity:1;fill:#000000;fill-opacity:1;fill-rule:evenodd;stroke:none;stroke-width:5;stroke-linecap:round;stroke-linejoin:round;stroke-miterlimit:4;stroke-dasharray:none;stroke-dashoffset:0;stroke-opacity:1;color-rendering:auto;image-rendering:auto;shape-rendering:auto;text-rendering:auto;enable-background:accumulate"
     d="m 3807.1621,304.35952 c -3.3808,-0.0478 -3.3808,5.04781 0,5 l 96.1914,0 0,184.65821 c -0.048,3.38081 5.0478,3.38081 5,0 l 0,-187.15821 c -1e-4,-1.38065 -1.1193,-2.49986 -2.5,-2.5 z"
     id="path7893"
     inkscape:connector-curvature="0"
     sodipodi:nodetypes="cccccccc" />
  <image
     sodipodi:absref="C:\Users\gazdo\workspace\gev.github.io\korolab\scheme\mikrotik.png"
     xlink:href="mikrotik.png"
     y="254.53781"
     x="1129.2277"
     id="mikrotik"
     preserveAspectRatio="none"
     height="67.494774"
     width="166.83566"
     style="stroke:#808080;stroke-width:6;stroke-miterlimit:4;stroke-dasharray:none;stroke-opacity:1" />
  <image
     sodipodi:absref="C:\Users\gazdo\workspace\gev.github.io\korolab\scheme\plc.png"
     xlink:href="plc.png"
     y="187.52092"
     x="3600.9326"
     id="plc"
     preserveAspectRatio="none"
     height="183.94702"
     width="240.50954"
     style="stroke:#808080;stroke-width:6;stroke-miterlimit:4;stroke-dasharray:none;stroke-opacity:1" />
  <image
     sodipodi:absref="C:\Users\gazdo\workspace\gev.github.io\korolab\scheme\zotac.png"
     xlink:href="zotac.png"
     y="111.46793"
     x="6328.0635"
     id="zotac"
     preserveAspectRatio="none"
     height="210.56467"
     width="210.56467"
     style="stroke:#808080;stroke-width:6;stroke-miterlimit:4;stroke-dasharray:none;stroke-opacity:1" />
  <image
     sodipodi:absref="C:\Users\gazdo\workspace\gev.github.io\korolab\scheme\appletv.png"
     xlink:href="appletv.png"
     y="234.57457"
     x="7076.1196"
     id="appletv"
     preserveAspectRatio="none"
     height="87.458015"
     width="160.18124"
     style="stroke:#808080;stroke-width:6;stroke-miterlimit:4;stroke-dasharray:none;stroke-opacity:1" />
  <image
     sodipodi:absref="C:\Users\gazdo\workspace\gev.github.io\korolab\scheme\iphone.png"
     xlink:href="iphone.png"
     y="138.08557"
     x="500"
     id="iphone"
     preserveAspectRatio="none"
     height="183.94702"
     width="91.735855"
     style="stroke:#808080;stroke-width:6;stroke-miterlimit:4;stroke-dasharray:none;stroke-opacity:1" />
  <image
     sodipodi:absref="C:\Users\gazdo\workspace\gev.github.io\korolab\scheme\trendent.png"
     xlink:href="trendent.png"
     y="215.08664"
     x="2660.3735"
     id="trendent"
     preserveAspectRatio="none"
     height="106.94594"
     width="403.06735"
     style="stroke:#808080;stroke-width:6;stroke-miterlimit:4;stroke-dasharray:none;stroke-opacity:1" />
  <image
     sodipodi:absref="C:\Users\gazdo\workspace\gev.github.io\korolab\scheme\gsm.png"
     xlink:href="gsm.png"
     y="74.5364"
     x="1833.5552"
     id="gsm"
     preserveAspectRatio="none"
     height="247.4962"
     width="289.32651"
     style="stroke:#808080;stroke-width:6;stroke-miterlimit:4;stroke-dasharray:none;stroke-opacity:1" />
  <image
     sodipodi:absref="C:\Users\gazdo\workspace\gev.github.io\korolab\scheme\server.png"
     xlink:href="server.png"
     y="166.76672"
     x="4378.9341"
     id="server"
     preserveAspectRatio="none"
     height="161.99521"
     width="415.59488"
     style="stroke:#808080;stroke-width:6;stroke-miterlimit:4;stroke-dasharray:none;stroke-opacity:1" />
  <image
     sodipodi:absref="C:\Users\gazdo\workspace\gev.github.io\korolab\scheme\pioneer.png"
     xlink:href="pioneer.png"
     y="120.41425"
     x="5332.021"
     id="pioneer"
     preserveAspectRatio="none"
     height="212.81456"
     width="458.55069"
     style="stroke:#808080;stroke-width:6;stroke-miterlimit:4;stroke-dasharray:none;stroke-opacity:1" />
  <image
     sodipodi:absref="C:\Users\gazdo\workspace\gev.github.io\korolab\scheme\nas.png"
     xlink:href="nas.png"
     width="153.04619"
     height="250.21176"
     preserveAspectRatio="none"
     id="nas"
     x="7775.9141"
     y="71.820839"
     style="stroke:#808080;stroke-width:6;stroke-miterlimit:4;stroke-dasharray:none;stroke-opacity:1" />
  <image
     sodipodi:absref="C:\Users\gazdo\workspace\gev.github.io\korolab\scheme\nvr.png"
     xlink:href="nvr.png"
     width="452.0575"
     height="93.254623"
     preserveAspectRatio="none"
     id="nvr"
     x="8468.5742"
     y="228.77797"
     style="stroke:#808080;stroke-width:6;stroke-miterlimit:4;stroke-dasharray:none;stroke-opacity:1" />
</svg>
