<?xml version="1.0" encoding="UTF-8" standalone="no"?>
<?xml-stylesheet type="text/css" href="svg.css"?><!-- Created with Inkscape (http://www.inkscape.org/) -->

<svg
   xmlns:dc="http://purl.org/dc/elements/1.1/"
   xmlns:cc="http://creativecommons.org/ns#"
   xmlns:rdf="http://www.w3.org/1999/02/22-rdf-syntax-ns#"
   xmlns:svg="http://www.w3.org/2000/svg"
   xmlns="http://www.w3.org/2000/svg"
   xmlns:xlink="http://www.w3.org/1999/xlink"
   xmlns:sodipodi="http://sodipodi.sourceforge.net/DTD/sodipodi-0.dtd"
   xmlns:inkscape="http://www.inkscape.org/namespaces/inkscape"
   width="10708.482"
   height="1116.5671"
   viewBox="0 0 10708.482 1116.5671"
   id="svg2"
   version="1.1"
   inkscape:version="0.91 r13725"
   sodipodi:docname="interior.svg"
   style="shape-rendering:crispEdges">
  <metadata
     id="metadata19">
    <rdf:RDF>
      <cc:Work
         rdf:about="">
        <dc:format>image/svg+xml</dc:format>
        <dc:type
           rdf:resource="http://purl.org/dc/dcmitype/StillImage" />
        <dc:title />
      </cc:Work>
    </rdf:RDF>
  </metadata>
  <sodipodi:namedview
     pagecolor="#ffffff"
     bordercolor="#666666"
     borderopacity="1"
     objecttolerance="10"
     gridtolerance="10"
     guidetolerance="10"
     inkscape:pageopacity="0"
     inkscape:pageshadow="2"
     inkscape:window-width="1600"
     inkscape:window-height="877"
     id="namedview17"
     showgrid="false"
     inkscape:snap-global="false"
     fit-margin-top="10"
     fit-margin-left="0"
     fit-margin-right="0"
     fit-margin-bottom="0"
     inkscape:zoom="0.86267028"
     inkscape:cx="3408.871"
     inkscape:cy="807.30506"
     inkscape:window-x="-8"
     inkscape:window-y="-8"
     inkscape:window-maximized="1"
     inkscape:current-layer="svg2"
     units="px"
     inkscape:snap-page="false"
     inkscape:snap-bbox="true"
     inkscape:bbox-paths="true"
     inkscape:bbox-nodes="true"
     inkscape:snap-bbox-edge-midpoints="true"
     inkscape:snap-bbox-midpoints="true"
     inkscape:object-paths="true"
     inkscape:snap-intersection-paths="true"
     inkscape:object-nodes="true"
     inkscape:snap-smooth-nodes="true"
     inkscape:snap-midpoints="true"
     inkscape:snap-object-midpoints="true"
     inkscape:snap-center="true"
     showguides="false"
     inkscape:snap-grids="false"
     inkscape:snap-to-guides="false" />
  <defs
     id="defs4">
    <filter
       id="green-glow"
       x="-21416.965"
       y="-2207.4939"
       width="42833.93"
       height="4414.9878"
       filterUnits="userSpaceOnUse"
       style="color-interpolation-filters:sRGB">
      <feComponentTransfer
         in="SourceAlpha"
         id="feComponentTransfer7">
        <feFuncR
           type="discrete"
           tableValues=""
           id="feFuncR9" />
        <feFuncG
           type="discrete"
           tableValues="1"
           id="feFuncG11" />
        <feFuncB
           type="discrete"
           tableValues="0.3"
           id="feFuncB13" />
      </feComponentTransfer>
      <feGaussianBlur
         stdDeviation="16"
         id="feGaussianBlur15" />
      <feOffset
         dx="0"
         dy="0"
         result="s1"
         id="feOffset17" />
      <feGaussianBlur
         stdDeviation="8"
         id="feGaussianBlur19" />
      <feOffset
         dx="0"
         dy="0"
         result="s2"
         id="feOffset21" />
      <feGaussianBlur
         stdDeviation="4"
         id="feGaussianBlur23" />
      <feOffset
         dx="0"
         dy="0"
         result="s3"
         id="feOffset25" />
      <feGaussianBlur
         stdDeviation="2"
         id="feGaussianBlur27" />
      <feOffset
         dx="0"
         dy="0"
         result="s4"
         id="feOffset29" />
      <feMerge
         id="feMerge31">
        <feMergeNode
           in="s4"
           id="feMergeNode33" />
        <feMergeNode
           in="s3"
           id="feMergeNode35" />
        <feMergeNode
           in="s2"
           id="feMergeNode37" />
        <feMergeNode
           in="s1"
           id="feMergeNode39" />
        <feMergeNode
           in="SourceGraphic"
           id="feMergeNode41" />
      </feMerge>
    </filter>
    <filter
       id="hall-lighting"
       x="-21416.965"
       y="-2207.4939"
       width="42833.93"
       height="4414.9878"
       filterUnits="userSpaceOnUse"
       style="color-interpolation-filters:sRGB">
      <feComponentTransfer
         id="feComponentTransfer26">
        <feFuncA
           type="linear"
           slope="0.5"
           id="feFuncA28" />
      </feComponentTransfer>
      <feOffset
         dx="0"
         dy="0"
         result="s5"
         id="feOffset31" />
      <feComponentTransfer
         in="SourceAlpha"
         id="feComponentTransfer31">
        <feFuncR
           type="discrete"
           tableValues="1"
           id="feFuncR33" />
        <feFuncG
           type="discrete"
           tableValues="0.7"
           id="feFuncG35" />
        <feFuncB
           type="discrete"
           tableValues="0.4"
           id="feFuncB37" />
      </feComponentTransfer>
      <feGaussianBlur
         stdDeviation="64"
         id="feGaussianBlur39" />
      <feOffset
         dx="0"
         dy="0"
         result="s1"
         id="feOffset41" />
      <feGaussianBlur
         stdDeviation="32"
         id="feGaussianBlur43" />
      <feOffset
         dx="0"
         dy="0"
         result="s2"
         id="feOffset45" />
      <feGaussianBlur
         stdDeviation="16"
         id="feGaussianBlur47" />
      <feOffset
         dx="0"
         dy="0"
         result="s3"
         id="feOffset49" />
      <feGaussianBlur
         stdDeviation="8"
         id="feGaussianBlur51" />
      <feOffset
         dx="0"
         dy="0"
         result="s4"
         id="feOffset53" />
      <feMerge
         id="feMerge55">
        <feMergeNode
           in="s4"
           id="feMergeNode57" />
        <feMergeNode
           in="s3"
           id="feMergeNode59" />
        <feMergeNode
           in="s2"
           id="feMergeNode61" />
        <feMergeNode
           in="s1"
           id="feMergeNode63" />
        <feMergeNode
           in="SourceGraphic"
           id="feMergeNode65" />
        <feMergeNode
           in="s5"
           id="feMergeNode47" />
      </feMerge>
    </filter>
    <filter
       id="bedroom-lighting"
       x="-21416.965"
       y="-2207.4939"
       width="42833.93"
       height="4414.9878"
       filterUnits="userSpaceOnUse"
       style="color-interpolation-filters:sRGB">
      <feComponentTransfer
         id="feComponentTransfer68">
        <feFuncA
           type="linear"
           slope="1"
           id="feFuncA70" />
      </feComponentTransfer>
      <feOffset
         dx="0"
         dy="0"
         result="s5"
         id="feOffset72" />
      <feComponentTransfer
         in="SourceAlpha"
         id="feComponentTransfer74">
        <feFuncR
           type="discrete"
           tableValues="1"
           id="feFuncR76" />
        <feFuncG
           type="discrete"
           tableValues="0.4"
           id="feFuncG78" />
        <feFuncB
           type="discrete"
           tableValues="0.4"
           id="feFuncB80" />
      </feComponentTransfer>
      <feGaussianBlur
         stdDeviation="50"
         id="feGaussianBlur82" />
      <feOffset
         dx="0"
         dy="0"
         result="s1"
         id="feOffset84" />
      <feGaussianBlur
         stdDeviation="35"
         id="feGaussianBlur86" />
      <feOffset
         dx="0"
         dy="0"
         result="s2"
         id="feOffset88" />
      <feGaussianBlur
         stdDeviation="20"
         id="feGaussianBlur90" />
      <feOffset
         dx="0"
         dy="0"
         result="s3"
         id="feOffset92" />
      <feGaussianBlur
         stdDeviation="5"
         id="feGaussianBlur94" />
      <feOffset
         dx="0"
         dy="0"
         result="s4"
         id="feOffset96" />
      <feMerge
         id="feMerge98">
        <feMergeNode
           in="s1"
           id="feMergeNode100" />
        <feMergeNode
           in="s2"
           id="feMergeNode102" />
        <feMergeNode
           in="s3"
           id="feMergeNode104" />
        <feMergeNode
           in="s4"
           id="feMergeNode106" />
        <feMergeNode
           in="s5"
           id="feMergeNode108" />
      </feMerge>
    </filter>
  </defs>
  <image
     sodipodi:absref="C:\Users\gazdo\workspace\gev.github.io\korolab\scheme\bedroom.jpg"
     xlink:href="bedroom.jpg"
     style="stroke-width:3;stroke-miterlimit:4;stroke-dasharray:none"
     y="193.56633"
     x="7256.4829"
     id="image3355"
     preserveAspectRatio="none"
     height="923"
     width="1645" />
  <image
     sodipodi:absref="C:\Users\gazdo\workspace\gev.github.io\korolab\scheme\shadow2.png"
     xlink:href="shadow2.png"
     width="465.87878"
     height="217.11659"
     id="image95560"
     style="stroke-width:3;stroke-miterlimit:4;stroke-dasharray:none"
     x="7862.9619"
     y="202.92683" />
  <image
     sodipodi:absref="C:\Users\gazdo\workspace\gev.github.io\korolab\scheme\hall.jpg"
     xlink:href="hall.jpg"
     style="stroke-width:3;stroke-miterlimit:4;stroke-dasharray:none"
     y="193.56633"
     x="1658.9825"
     id="image3366"
     preserveAspectRatio="none"
     height="923"
     width="1874" />
  <image
     sodipodi:absref="C:\Users\gazdo\workspace\gev.github.io\korolab\scheme\shadow1.png"
     xlink:href="shadow1.png"
     width="389.79855"
     height="187.6692"
     id="image95558"
     style="stroke-width:3;stroke-miterlimit:4;stroke-dasharray:none"
     x="2524.9697"
     y="216.75066" />
  <image
     sodipodi:absref="C:\Users\gazdo\workspace\gev.github.io\korolab\scheme\left.png"
     xlink:href="left.png"
     y="153.75468"
     x="0"
     id="image5042"
     preserveAspectRatio="none"
     height="962.8125"
     width="103.125"
     style="fill:#ffffff;stroke-width:3;stroke-miterlimit:4;stroke-dasharray:none" />
  <image
     sodipodi:absref="C:\Users\gazdo\workspace\gev.github.io\korolab\scheme\lift.jpg"
     xlink:href="lift.jpg"
     y="193.56718"
     x="58.500031"
     id="image3388"
     preserveAspectRatio="none"
     height="923"
     width="1523"
     style="stroke:#000000;stroke-width:3;stroke-miterlimit:4;stroke-dasharray:none" />
  <image
     sodipodi:absref="C:\Users\gazdo\workspace\gev.github.io\korolab\scheme\middle.png"
     xlink:href="middle.png"
     style="stroke-width:3;stroke-miterlimit:4;stroke-dasharray:none"
     y="153.2968"
     x="8856.5186"
     id="image5075"
     preserveAspectRatio="none"
     height="962.8125"
     width="167.8125" />
  <image
     sodipodi:absref="C:\Users\gazdo\workspace\gev.github.io\korolab\scheme\middle.png"
     xlink:href="middle.png"
     style="stroke-width:3;stroke-miterlimit:4;stroke-dasharray:none"
     width="167.8125"
     height="962.8125"
     preserveAspectRatio="none"
     id="image5073"
     x="7133.0181"
     y="153.2968" />
  <image
     sodipodi:absref="C:\Users\gazdo\workspace\gev.github.io\korolab\scheme\kitchen.jpg"
     xlink:href="kitchen.jpg"
     style="stroke-width:3;stroke-miterlimit:4;stroke-dasharray:none"
     y="193.56633"
     x="3611.4824"
     id="image3377"
     preserveAspectRatio="none"
     height="923"
     width="1819" />
  <image
     sodipodi:absref="C:\Users\gazdo\workspace\gev.github.io\korolab\scheme\middle.png"
     xlink:href="middle.png"
     style="stroke-width:3;stroke-miterlimit:4;stroke-dasharray:none"
     y="153.2968"
     x="5385.5181"
     id="image5071"
     preserveAspectRatio="none"
     height="962.8125"
     width="167.8125" />
  <image
     sodipodi:absref="C:\Users\gazdo\workspace\gev.github.io\korolab\scheme\living-room.jpg"
     xlink:href="living-room.jpg"
     style="stroke-width:3;stroke-miterlimit:4;stroke-dasharray:none"
     y="193.56633"
     x="5508.9829"
     id="image3399"
     preserveAspectRatio="none"
     height="923"
     width="1669" />
  <image
     sodipodi:absref="C:\Users\gazdo\workspace\gev.github.io\korolab\scheme\middle.png"
     xlink:href="middle.png"
     style="stroke-width:3;stroke-miterlimit:4;stroke-dasharray:none"
     width="167.8125"
     height="962.8125"
     preserveAspectRatio="none"
     id="image5067"
     x="3488.6348"
     y="153.2968" />
  <image
     sodipodi:absref="C:\Users\gazdo\workspace\gev.github.io\korolab\scheme\middle.png"
     xlink:href="middle.png"
     style="stroke-width:3;stroke-miterlimit:4;stroke-dasharray:none"
     y="153.2968"
     x="1535.8263"
     id="image5053"
     preserveAspectRatio="none"
     height="962.8125"
     width="167.8125" />
  <image
     sodipodi:absref="C:\Users\gazdo\workspace\gev.github.io\korolab\scheme\bathroom.jpg"
     xlink:href="bathroom.jpg"
     style="stroke-width:3;stroke-miterlimit:4;stroke-dasharray:none"
     y="193.56633"
     x="8979.9834"
     id="image3344"
     preserveAspectRatio="none"
     height="923"
     width="1670" />
  <image
     sodipodi:absref="C:\Users\gazdo\workspace\gev.github.io\korolab\scheme\right.png"
     xlink:href="right.png"
     y="153.2968"
     x="10605.357"
     id="image5064"
     preserveAspectRatio="none"
     height="962.8125"
     width="103.125"
     style="fill:#ffffff;stroke-width:3;stroke-miterlimit:4;stroke-dasharray:none" />
  <image
     sodipodi:absref="C:\Users\gazdo\workspace\gev.github.io\korolab\scheme\cond2.png"
     xlink:href="cond2.png"
     style="stroke-width:3;stroke-miterlimit:4;stroke-dasharray:none"
     width="330.60001"
     height="120"
     preserveAspectRatio="none"
     id="bedroomCond"
     x="7933.6831"
     y="253.56633" />
  <image
     sodipodi:absref="C:\Users\gazdo\workspace\gev.github.io\korolab\scheme\finger.png"
     xlink:href="finger.png"
     style="stroke-width:3;stroke-miterlimit:4;stroke-dasharray:none"
     width="30"
     height="77.922073"
     preserveAspectRatio="none"
     id="finger"
     x="1713.6538"
     y="572.01099" />
  <image
     sodipodi:absref="C:\Users\gazdo\workspace\gev.github.io\korolab\scheme\unifi1.png"
     xlink:href="unifi1.png"
     style="stroke-width:3;stroke-miterlimit:4;stroke-dasharray:none"
     width="88.631577"
     height="90"
     preserveAspectRatio="none"
     id="livingUnifi"
     x="5624.3623"
     y="270.22293" />
  <image
     sodipodi:absref="C:\Users\gazdo\workspace\gev.github.io\korolab\scheme\unifi1.png"
     xlink:href="unifi1.png"
     style="stroke-width:3;stroke-miterlimit:4;stroke-dasharray:none"
     y="270.22293"
     x="7362.5586"
     id="bedroomUnifi"
     preserveAspectRatio="none"
     height="90"
     width="88.631577" />
  <path
     style="fill:none;fill-rule:evenodd;stroke:#000000;stroke-width:3;stroke-linecap:butt;stroke-linejoin:miter;stroke-miterlimit:4;stroke-dasharray:none;stroke-opacity:1;marker-start:url(#marker17503);marker-end:url(#marker17653)"
     d="m 5365.596,85.833425 0,857.388625"
     id="path17447"
     inkscape:connector-curvature="0" />
  <image
     sodipodi:absref="C:\Users\gazdo\workspace\gev.github.io\korolab\scheme\cam.png"
     xlink:href="cam.png"
     transform="scale(-1,1)"
     width="91.347412"
     height="101.70012"
     preserveAspectRatio="none"
     id="cam"
     x="-149.5"
     y="249.14827"
     style="stroke-width:3;stroke-miterlimit:4;stroke-dasharray:none" />
  <g
     id="g46913"
     transform="translate(-12,-9.179893)"
     style="stroke-width:3;stroke-miterlimit:4;stroke-dasharray:none">
    <circle
       r="111.28238"
       cy="566.33429"
       cx="1585.4714"
       id="path46821"
       style="opacity:1;fill:#ececec;fill-opacity:1;stroke:#000000;stroke-width:3;stroke-linecap:butt;stroke-miterlimit:4;stroke-dasharray:none;stroke-opacity:1" />
    <image
       sodipodi:absref="C:\Users\gazdo\workspace\gev.github.io\korolab\scheme\basip.png"
       xlink:href="basip.png"
       y="509.67816"
       x="1593.6682"
       id="basip"
       preserveAspectRatio="none"
       height="113.31229"
       width="68.233696"
       style="stroke-width:3;stroke-miterlimit:4;stroke-dasharray:none" />
    <path
       id="path46821-3"
       d="m 1564.1248,459.36666 a 107.08493,108.84942 0 0 0 -87.9377,107.04869 107.08493,108.84942 0 0 0 87.9377,107.00667 l 0,-214.05536 z"
       style="opacity:1;fill:#803300;fill-opacity:1;stroke:none;stroke-width:3;stroke-linecap:butt;stroke-miterlimit:4;stroke-dasharray:none;stroke-opacity:1;shape-rendering:crispEdges"
       inkscape:connector-curvature="0" />
  </g>
  <image
     sodipodi:absref="C:\Users\gazdo\workspace\gev.github.io\korolab\scheme\button.png"
     xlink:href="button.png"
     width="50"
     height="50"
     preserveAspectRatio="none"
     id="button"
     x="9363.7139"
     y="584.4165"
     style="stroke-width:3;stroke-miterlimit:4;stroke-dasharray:none" />
  <image
     sodipodi:absref="C:\Users\gazdo\workspace\gev.github.io\korolab\scheme\ipad.png"
     xlink:href="ipad.png"
     width="116.22784"
     height="88.320023"
     preserveAspectRatio="none"
     id="ipad"
     x="2150.8813"
     y="535.71637"
     style="stroke-width:3;stroke-miterlimit:4;stroke-dasharray:none" />
  <image
     sodipodi:absref="C:\Users\gazdo\workspace\gev.github.io\korolab\scheme\motion-sensor.png"
     xlink:href="motion-sensor.png"
     width="50"
     height="50"
     preserveAspectRatio="none"
     id="motionSensor"
     x="3427.6804"
     y="254.04366"
     style="stroke-width:3;stroke-miterlimit:4;stroke-dasharray:none" />
  <image
     sodipodi:absref="C:\Users\gazdo\workspace\gev.github.io\korolab\scheme\socket.jpg"
     xlink:href="socket.jpg"
     width="122.60602"
     height="41.327869"
     preserveAspectRatio="none"
     id="socket"
     x="8753.4502"
     y="819.46875"
     style="stroke-width:3;stroke-miterlimit:4;stroke-dasharray:none" />
  <image
     sodipodi:absref="C:\Users\gazdo\workspace\gev.github.io\korolab\scheme\acoustics.png"
     xlink:href="acoustics.png"
     width="103.94189"
     height="103.94189"
     preserveAspectRatio="none"
     id="bathroomAcoustics"
     x="10507.104"
     y="237.45592"
     style="stroke-width:3;stroke-miterlimit:4;stroke-dasharray:none" />
  <image
     sodipodi:absref="C:\Users\gazdo\workspace\gev.github.io\korolab\scheme\acoustics.png"
     xlink:href="acoustics.png"
     y="237.45592"
     x="3681.1035"
     id="kitchenAcoustics"
     preserveAspectRatio="none"
     height="103.94189"
     width="103.94189"
     style="stroke-width:3;stroke-miterlimit:4;stroke-dasharray:none" />
  <image
     sodipodi:absref="C:\Users\gazdo\workspace\gev.github.io\korolab\scheme\cond1.png"
     xlink:href="cond1.png"
     style="stroke-width:3;stroke-miterlimit:4;stroke-dasharray:none"
     width="330"
     height="120"
     preserveAspectRatio="none"
     id="hallCond"
     x="2563.5706"
     y="253.56633" />
  <image
     sodipodi:absref="C:\Users\gazdo\workspace\gev.github.io\korolab\scheme\hall-lighting.png"
     xlink:href="hall-lighting.png"
     y="435.95236"
     x="3263.9141"
     id="hallLighting"
     preserveAspectRatio="none"
     height="109.11201"
     width="163.66805"
     style="opacity:0;stroke-width:3;stroke-miterlimit:4;stroke-dasharray:none" />
  <image
     sodipodi:absref="C:\Users\gazdo\workspace\gev.github.io\korolab\scheme\bedroomLeftLamp.png"
     xlink:href="bedroomLeftLamp.png"
     width="180.78381"
     height="99.986572"
     preserveAspectRatio="none"
     id="bedroomLeftLamp"
     x="7471.8091"
     y="492.61227"
     style="opacity:0;stroke-width:3;stroke-miterlimit:4;stroke-dasharray:none" />
  <image
     sodipodi:absref="C:\Users\gazdo\workspace\gev.github.io\korolab\scheme\bedroomRightLamp.png"
     xlink:href="bedroomRightLamp.png"
     width="180.2863"
     height="98.609634"
     preserveAspectRatio="none"
     id="bedroomRightLamp"
     x="8538.8359"
     y="492.87823"
     style="opacity:0;stroke-width:3;stroke-miterlimit:4;stroke-dasharray:none" />
  <path
     style="color:#000000;font-style:normal;font-variant:normal;font-weight:normal;font-stretch:normal;font-size:medium;line-height:normal;font-family:sans-serif;text-indent:0;text-align:start;text-decoration:none;text-decoration-line:none;text-decoration-style:solid;text-decoration-color:#000000;letter-spacing:normal;word-spacing:normal;text-transform:none;direction:ltr;block-progression:tb;writing-mode:lr-tb;baseline-shift:baseline;text-anchor:start;white-space:normal;clip-rule:nonzero;display:inline;overflow:visible;visibility:visible;opacity:1;isolation:auto;mix-blend-mode:normal;color-interpolation:sRGB;color-interpolation-filters:linearRGB;solid-color:#000000;solid-opacity:1;fill:#cccccc;fill-opacity:1;fill-rule:evenodd;stroke:#ffffff;stroke-width:1;stroke-linecap:round;stroke-linejoin:round;stroke-miterlimit:4;stroke-dasharray:none;stroke-dashoffset:0;stroke-opacity:1;color-rendering:auto;image-rendering:auto;shape-rendering:auto;text-rendering:auto;enable-background:accumulate"
     d="M 10560.096 48.597656 L 3737.5957 48.675781 A 2.50025 2.50025 0 0 0 3735.0977 51.175781 L 3735.0977 222.25 A 2.50025 2.50025 0 1 0 3740.0977 222.25 L 3740.0977 53.675781 L 6348.5059 53.646484 L 6348.5059 252.96875 A 2.50025 2.50025 0 1 0 6353.5059 252.96875 L 6353.5059 53.646484 L 7093.8262 53.636719 L 7093.8262 612.53516 L 7064.9863 612.53516 A 2.50025 2.50025 0 1 0 7064.9863 617.53516 L 7096.3262 617.53516 A 2.50025 2.50025 0 0 0 7098.8262 615.03516 L 7098.8262 53.636719 L 10557.596 53.597656 L 10557.566 224.76367 A 2.50025 2.50025 0 1 0 10562.566 224.76367 L 10562.596 51.097656 A 2.50025 2.50025 0 0 0 10560.096 48.597656 z "
     id="path74665" />
  <path
     style="color:#000000;font-style:normal;font-variant:normal;font-weight:normal;font-stretch:normal;font-size:medium;line-height:normal;font-family:sans-serif;text-indent:0;text-align:start;text-decoration:none;text-decoration-line:none;text-decoration-style:solid;text-decoration-color:#000000;letter-spacing:normal;word-spacing:normal;text-transform:none;direction:ltr;block-progression:tb;writing-mode:lr-tb;baseline-shift:baseline;text-anchor:start;white-space:normal;clip-rule:nonzero;display:inline;overflow:visible;visibility:visible;opacity:1;isolation:auto;mix-blend-mode:normal;color-interpolation:sRGB;color-interpolation-filters:linearRGB;solid-color:#000000;solid-opacity:1;fill:#cccccc;fill-opacity:1;fill-rule:evenodd;stroke:#ffffff;stroke-width:1;stroke-linecap:round;stroke-linejoin:round;stroke-miterlimit:4;stroke-dasharray:none;stroke-dashoffset:0;stroke-opacity:1;color-rendering:auto;image-rendering:auto;shape-rendering:auto;text-rendering:auto;enable-background:accumulate"
     d="M 7410.7832 14.09375 A 2.50025 2.50025 0 0 0 7409.2266 14.669922 L 218.39453 14.275391 A 2.50025 2.50025 0 0 0 215.89453 16.773438 L 215.53125 279.45508 L 179.0625 279.45508 A 2.50025 2.50025 0 1 0 179.0625 284.45508 L 218.02734 284.45508 A 2.50025 2.50025 0 0 0 220.52734 281.95703 L 220.89062 19.275391 L 1611.3906 19.351562 L 1611.3906 467.61914 A 2.50025 2.50025 0 1 0 1616.3906 467.61914 L 1616.3906 19.351562 L 2351.7539 19.392578 L 2351.7539 566.59961 L 2302.3652 566.59961 A 2.50025 2.50025 0 1 0 2302.3652 571.59961 L 2354.2539 571.59961 A 2.50025 2.50025 0 0 0 2356.7539 569.09961 L 2356.7539 19.392578 L 2963.3906 19.425781 L 2963.3906 278.55469 L 2910.7227 278.55469 A 2.50025 2.50025 0 1 0 2910.7227 283.55469 L 2965.8906 283.55469 A 2.50025 2.50025 0 0 0 2968.3906 281.05469 L 2968.3906 19.425781 L 5665.5332 19.574219 L 5665.5332 258.04492 A 2.50025 2.50025 0 1 0 5670.5332 258.04492 L 5670.5332 19.574219 L 6673.3184 19.628906 L 6673.3184 515.98242 L 6634.7324 515.98242 A 2.50025 2.50025 0 1 0 6634.7324 520.98242 L 6675.8184 520.98242 A 2.50025 2.50025 0 0 0 6678.3184 518.48242 L 6678.3184 19.630859 L 7408.3203 19.669922 L 7408.3418 258.27344 A 2.50025 2.50025 0 1 0 7413.3418 258.27344 L 7413.3203 19.669922 L 8329.3281 19.720703 L 8329.3906 278.55469 L 8276.7246 278.55469 A 2.50025 2.50025 0 1 0 8276.7246 283.55469 L 8331.8906 283.55469 A 2.50025 2.50025 0 0 0 8334.3906 281.05469 L 8334.3281 17.21875 A 2.50025 2.50025 0 0 0 8331.8281 14.720703 L 7412.416 14.669922 A 2.50025 2.50025 0 0 0 7410.7832 14.09375 z "
     id="path17422" />
  <path
     style="color:#000000;font-style:normal;font-variant:normal;font-weight:normal;font-stretch:normal;font-size:medium;line-height:normal;font-family:sans-serif;text-indent:0;text-align:start;text-decoration:none;text-decoration-line:none;text-decoration-style:solid;text-decoration-color:#000000;letter-spacing:normal;word-spacing:normal;text-transform:none;direction:ltr;block-progression:tb;writing-mode:lr-tb;baseline-shift:baseline;text-anchor:start;white-space:normal;clip-rule:nonzero;display:inline;overflow:visible;visibility:visible;opacity:1;isolation:auto;mix-blend-mode:normal;color-interpolation:sRGB;color-interpolation-filters:linearRGB;solid-color:#000000;solid-opacity:1;fill:#cccccc;fill-opacity:1;fill-rule:evenodd;stroke:#ffffff;stroke-width:1;stroke-linecap:round;stroke-linejoin:round;stroke-miterlimit:4;stroke-dasharray:none;stroke-dashoffset:0;stroke-opacity:1;color-rendering:auto;image-rendering:auto;shape-rendering:crispEdges;text-rendering:auto;enable-background:accumulate"
     d="M 9388.4707 82.974609 A 2.50025 2.50025 0 0 0 9387.4727 83.199219 L 1966.2168 83.259766 A 2.50025 2.50025 0 0 0 1965.4395 83.146484 A 2.50025 2.50025 0 0 0 1964.7383 83.259766 L 1729.5156 83.261719 A 2.50025 2.50025 0 0 0 1727.0156 85.761719 L 1727.0957 558.37109 A 2.50025 2.50025 0 1 0 1732.0957 558.36914 L 1732.0156 88.261719 L 1962.9785 88.259766 L 1962.9785 317.96484 A 2.50025 2.50025 0 1 0 1967.9785 317.96484 L 1967.9785 88.259766 L 3189.0234 88.25 L 3189.0234 499 A 2.50025 2.50025 0 0 0 3191.5234 501.5 L 3246.5918 501.5 A 2.50025 2.50025 0 1 0 3246.5918 496.5 L 3194.0234 496.5 L 3194.0234 88.25 L 3420.3008 88.248047 L 3420.3008 281.07227 A 2.50025 2.50025 0 1 0 3425.3008 281.07227 L 3425.3008 88.248047 L 4716.0137 88.238281 L 4716.0137 635.07617 A 2.50025 2.50025 0 0 0 4718.5137 637.57617 L 4882.9688 637.57617 A 2.50025 2.50025 0 1 0 4882.9688 632.57617 L 4721.0137 632.57617 L 4721.0137 88.238281 L 7613.3359 88.214844 L 7613.3359 457.2207 L 7581.0234 457.2207 A 2.50025 2.50025 0 1 0 7581.0234 462.2207 L 7615.8359 462.2207 A 2.50025 2.50025 0 0 0 7618.3359 459.7207 L 7618.3359 88.214844 L 8566.8906 88.207031 L 8566.8906 459.7207 A 2.50025 2.50025 0 0 0 8569.3906 462.2207 L 8604.2051 462.2207 A 2.50025 2.50025 0 1 0 8604.2051 457.2207 L 8571.8906 457.2207 L 8571.8906 88.207031 L 8814.8281 88.205078 L 8814.8281 798.53516 A 2.50025 2.50025 0 1 0 8819.8281 798.53516 L 8819.8281 88.205078 L 9016.8281 88.203125 L 9016.8281 942.79688 A 2.50025 2.50025 0 1 0 9021.8281 942.79688 L 9021.8281 88.203125 L 9386.0078 88.199219 L 9386.0078 559.34766 A 2.50025 2.50025 0 1 0 9391.0078 559.34766 L 9391.0078 88.199219 L 9731.168 88.197266 L 9731.168 929.88672 A 2.50025 2.50025 0 0 0 9733.668 932.38672 L 9768.2969 932.38672 A 2.50025 2.50025 0 1 0 9768.2969 927.38672 L 9736.168 927.38672 L 9736.168 88.195312 L 10309.195 88.191406 L 10309.195 762.60938 A 2.50025 2.50025 0 1 0 10314.195 762.60938 L 10314.195 85.691406 A 2.50025 2.50025 0 0 0 10311.695 83.191406 L 9389.5371 83.199219 A 2.50025 2.50025 0 0 0 9388.4707 82.974609 z "
     id="path17441" />
</svg>
